<svg xmlns="http://www.w3.org/2000/svg" xmlns:xlink="http://www.w3.org/1999/xlink" viewBox="0 0 358.55 300"><defs><style>.cls-1{fill:url(#未命名的渐变_7);}</style><linearGradient id="未命名的渐变_7" x1="179.28" y1="300" x2="179.28" gradientUnits="userSpaceOnUse"><stop offset="0" stop-color="#37b1ff"/><stop offset="1" stop-color="#274bbb"/></linearGradient></defs><g id="图层_2" data-name="图层 2"><g id="图层_1-2" data-name="图层 1"><path class="cls-1" d="M278.36,123.71l-91.24,52.58a15.75,15.75,0,0,1-15.69,0l-60.58-34.91a7.83,7.83,0,0,1,0-13.57l60.58-34.9a15.7,15.7,0,0,1,15.69,0q3.57,2,7.12,4.1a7.82,7.82,0,0,1,0,13.56l-29.92,17.24a7.82,7.82,0,0,0,0,13.57l7.11,4.1a15.7,15.7,0,0,0,15.69,0l60.58-34.91a7.81,7.81,0,0,0,0-13.56Q217.42,79.55,187.12,62.1a15.7,15.7,0,0,0-15.69,0l-114,65.71a7.82,7.82,0,0,0,0,13.57l114,65.71a15.7,15.7,0,0,0,15.69,0l114.05-65.71a7.83,7.83,0,0,0,0-13.57l-7.12-4.1A15.75,15.75,0,0,0,278.36,123.71ZM166.2,34.31,26.73,114.67a15.7,15.7,0,0,1-15.69,0l-7.12-4.1A7.82,7.82,0,0,1,3.92,97L166.2,3.5a26.17,26.17,0,0,1,26.16,0L354.63,97a7.82,7.82,0,0,1,0,13.56l-7.11,4.1a15.72,15.72,0,0,1-15.7,0L192.36,34.31A26.17,26.17,0,0,0,166.2,34.31ZM358.55,185.66v-33a7.85,7.85,0,0,0-11.77-6.78l-154.42,89a26.22,26.22,0,0,1-26.16,0l-154.43-89A7.85,7.85,0,0,0,0,152.68v33a26.1,26.1,0,0,0,13.08,22.61L166.2,296.5a26.17,26.17,0,0,0,26.16,0l153.12-88.23A26.09,26.09,0,0,0,358.55,185.66Z"/></g></g></svg>